<svg{% unless include.standalone %} class="mark"{% endunless %} viewBox="0 0 1649 2076" xmlns="http://www.w3.org/2000/svg"{% unless include.standalone %} aria-hidden="true" focusable="false"{% endunless %}>
{%- if include.standalone %}
  <style>
    svg { color: #27272c; }
    @media (prefers-color-scheme: dark) { svg { color: #d5d5da; } }
  </style>
{%- endif %}
  <g transform="translate(-86,2023) scale(1,-1)" fill="currentColor">
    <path d="M797 -49Q652 -49 523.5 0.0Q395 49 298.5 137.5Q202 226 146.0 348.0Q90 470 90 616Q90 753 147.0 875.0Q204 997 310.0 1098.5Q416 1200 567.0 1277.5Q718 1355 905 1403L829 1456Q758 1504 727.0 1569.5Q696 1635 696 1704Q696 1754 710.5 1803.0Q725 1852 751.0 1894.0Q777 1936 812.0 1968.5Q847 2001 889 2019L913 1982Q846 1934 846 1872Q846 1815 898.0 1750.0Q950 1685 1049 1614Q1216 1492 1342.5 1384.5Q1469 1277 1554.5 1171.0Q1640 1065 1684.0 955.5Q1728 846 1731 719Q1731 590 1694.0 483.5Q1657 377 1592.0 291.5Q1527 206 1438.0 142.0Q1349 78 1245.0 35.5Q1141 -7 1027.0 -28.0Q913 -49 797 -49ZM1393 637Q1393 737 1371.5 826.5Q1350 916 1301.5 1002.0Q1253 1088 1173.5 1173.0Q1094 1258 977 1348Q898 1331 827.0 1295.5Q756 1260 695.0 1209.5Q634 1159 584.5 1095.5Q535 1032 500.5 960.5Q466 889 447.0 811.5Q428 734 428 655Q428 577 445.0 501.5Q462 426 493.5 357.5Q525 289 571.0 231.0Q617 173 674.5 131.0Q732 89 800.5 65.0Q869 41 946 41Q1039 41 1120.5 84.5Q1202 128 1262.5 206.5Q1323 285 1358.0 394.5Q1393 504 1393 637Z"/>
  </g>
</svg>
